<svg width="72" height="64" viewBox="0 0 72 64" fill="none" xmlns="http://www.w3.org/2000/svg">
<path d="M29.565 0C29.2696 0 29.049 0.238377 29.0317 0.533342V8.62814C29.5679 8.82165 29.9838 9.29421 30.0775 9.87918C30.0813 9.89954 30.2941 11.0933 31.165 12.35V0.533342C31.165 0.237873 30.9272 0 30.6317 0H29.565ZM42.365 0C42.0696 0 41.849 0.238377 41.8317 0.533342V12.3448C42.708 11.078 42.9223 9.86873 42.9223 9.86873C43.0193 9.28922 43.4326 8.82078 43.965 8.62814V0.533342C43.965 0.237873 43.7272 0 43.4317 0H42.365ZM32.765 2.13337C32.4696 2.13337 32.2317 2.3712 32.2317 2.66665V13.5511C32.7778 14.0255 33.4585 14.4281 34.365 14.6729V2.66665C34.365 2.3712 34.1272 2.13337 33.8317 2.13337H32.765ZM39.165 2.13337C38.8696 2.13337 38.6317 2.3712 38.6317 2.66665V14.6729C39.5385 14.4277 40.2191 14.024 40.765 13.549V2.66665C40.765 2.3712 40.5272 2.13337 40.2317 2.13337H39.165ZM26.365 4.26667C26.0696 4.26667 25.8317 4.50454 25.8317 4.80001V8.5323H27.965V4.80001C27.965 4.50454 27.7272 4.26667 27.4317 4.26667H26.365ZM35.965 4.26667C35.6696 4.26667 35.4317 4.50454 35.4317 4.80001V14.875C35.7626 14.9125 36.1169 14.9333 36.4973 14.9333C36.8789 14.9333 37.2332 14.9127 37.565 14.875V4.80001C37.565 4.50454 37.3272 4.26667 37.0317 4.26667H35.965ZM45.565 4.26667C45.2696 4.26667 45.0317 4.50454 45.0317 4.80001V8.5323H47.165V4.80001C47.165 4.50454 46.9272 4.26667 46.6317 4.26667H45.565ZM23.6984 9.59898C23.3772 9.60011 23.1299 9.88259 23.1713 10.201L25.8369 30.4646C25.9312 31.2584 26.551 32 27.4307 32H45.565C46.4425 32 47.0618 31.2601 47.1588 30.4688L49.8286 10.201C49.8701 9.88093 49.6201 9.59759 49.2973 9.59898H44.4984C44.2374 9.60031 44.0157 9.79025 43.9744 10.0479C43.9744 10.0479 43.7222 11.5286 42.6629 13.0239C41.6037 14.5193 39.8009 16 36.4984 16C33.1958 16 31.3919 14.5193 30.3327 13.0239C29.2735 11.5286 29.0254 10.0479 29.0254 10.0479C28.9839 9.78906 28.7605 9.59878 28.4984 9.59898H23.6984ZM36.4984 19.7344C38.8485 19.7344 40.765 21.6478 40.765 23.9979C40.765 26.348 38.8485 28.2656 36.4984 28.2656C34.1482 28.2656 32.2296 26.348 32.2296 23.9979C32.2296 21.6478 34.1482 19.7344 36.4984 19.7344Z" fill="#FF7010"/>
<path d="M4.0957 52.2256H5.87988C7.7959 52.2256 8.88574 53.1133 8.88574 54.5371C8.88574 55.9082 7.72559 56.8926 5.94141 56.8926C4.18359 56.8926 2.98828 56.0225 2.84766 54.6953H1.31836C1.43262 56.8574 3.27832 58.2988 5.95898 58.2988C8.5166 58.2988 10.5117 56.6729 10.5117 54.5811C10.5117 52.7617 9.31641 51.6279 7.69922 51.4609V51.3203C9.05273 50.9863 9.9668 49.791 9.9668 48.4111C9.9668 46.4336 8.2793 45.0186 5.89746 45.0186C3.375 45.0186 1.73145 46.3721 1.57324 48.5693H3.11133C3.24316 47.2246 4.27148 46.4248 5.83594 46.4248C7.43555 46.4248 8.3584 47.2773 8.3584 48.5518C8.3584 49.8789 7.30371 50.8193 5.80957 50.8193H4.0957V52.2256ZM15.9082 56.8398C14.8096 56.8398 13.9922 56.2773 13.9922 55.3105C13.9922 54.3613 14.625 53.8604 16.0664 53.7637L18.6152 53.5967V54.4668C18.6152 55.8203 17.4639 56.8398 15.9082 56.8398ZM15.627 58.167C16.8926 58.167 17.9297 57.6133 18.5449 56.6025H18.6855V58H20.127V51.5137C20.127 49.5449 18.835 48.3584 16.5234 48.3584C14.502 48.3584 13.0078 49.3604 12.8057 50.8809H14.335C14.5459 50.1338 15.3369 49.7031 16.4707 49.7031C17.8857 49.7031 18.6152 50.3447 18.6152 51.5137V52.375L15.8818 52.542C13.6758 52.6738 12.4277 53.6494 12.4277 55.3457C12.4277 57.0771 13.79 58.167 15.627 58.167ZM25.0137 53.6846L28.8105 58H30.7705L26.2617 52.9902L30.6035 48.5254H28.7666L25.0137 52.4893H24.6006V48.5254H23.0889V58H24.6006V53.6846H25.0137ZM33.3457 61.4277C35.0244 61.4277 35.7803 60.7773 36.5889 58.5801L40.2891 48.5254H38.6807L36.0879 56.3213H35.9473L33.3457 48.5254H31.7109L35.2178 58.0088L35.042 58.5713C34.6465 59.7139 34.1719 60.127 33.3018 60.127C33.0908 60.127 32.8535 60.1182 32.6689 60.083V61.375C32.8799 61.4102 33.1436 61.4277 33.3457 61.4277ZM49.9746 51.4258C49.7109 49.7383 48.3047 48.3584 46.002 48.3584C43.3477 48.3584 41.6602 50.2744 41.6602 53.2275C41.6602 56.2422 43.3564 58.167 46.0107 58.167C48.2871 58.167 49.7021 56.8838 49.9746 55.1436H48.4453C48.1641 56.2158 47.2764 56.8047 46.002 56.8047C44.3145 56.8047 43.2246 55.416 43.2246 53.2275C43.2246 51.083 44.2969 49.7207 46.002 49.7207C47.3643 49.7207 48.1992 50.4854 48.4453 51.4258H49.9746ZM54.2988 53.6846L58.0957 58H60.0557L55.5469 52.9902L59.8887 48.5254H58.0518L54.2988 52.4893H53.8857V48.5254H52.374V58H53.8857V53.6846H54.2988ZM63.6768 58L68.3965 50.9336H68.5371V58H70.0488V48.5254H68.5371L63.8174 55.5918H63.6768V48.5254H62.165V58H63.6768Z" fill="#191919"/>
</svg>
